<svg xmlns="http://www.w3.org/2000/svg" width="70.656" height="70.656">
    <path fill-rule="evenodd" fill="#44C799" d="M26.598.009C12.045.009-.001 11.846-.001 26.397c0 14.55 12.046 26.594 26.599 26.594S52.99 40.947 52.99 26.397C52.99 11.846 41.151.009 26.598.009zM40.57 29.501H29.703v11.072a3.11 3.11 0 0 1-3.105 3.105 3.109 3.109 0 0 1-3.105-3.105V29.501H12.418a3.108 3.108 0 0 1-3.104-3.104 3.108 3.108 0 0 1 3.104-3.105h11.075V12.427a3.108 3.108 0 0 1 3.105-3.104 3.108 3.108 0 0 1 3.105 3.104v10.865H40.57a3.11 3.11 0 0 1 3.105 3.105 3.11 3.11 0 0 1-3.105 3.104z"/>
</svg>
