<svg xmlns="http://www.w3.org/2000/svg" width="30" height="30">
    <path fill="#086C32" fill-rule="evenodd" d="M15 29.999c-8.284 0-15-6.717-15-15.004C0 6.708 6.716-.009 15-.009c8.284 0 15 6.717 15 15.004 0 8.287-6.716 15.004-15 15.004zm7.412-19.018c-.633-.634-1.66-.634-2.293 0l-7.175 7.177-3.063-3.064c-.634-.634-1.66-.634-2.294 0-.633.633-.633 1.66 0 2.293l4.21 4.212c.634.633 1.66.633 2.294 0 .101-.102.16-.226.229-.345.118-.069.242-.127.344-.229l7.748-7.75c.634-.634.634-1.661 0-2.294z"/>
</svg>
