<svg xmlns="http://www.w3.org/2000/svg" width="66.624" height="66.624">
    <path fill-rule="evenodd" fill="#FFF" d="M24.903.79C11.465.79.342 11.713.342 25.139s11.123 24.54 24.561 24.54c13.437 0 24.369-11.114 24.369-24.54C49.272 11.713 38.34.79 24.903.79zm12.901 27.214H27.77v10.217a2.87 2.87 0 0 1-2.867 2.864 2.869 2.869 0 0 1-2.867-2.864V28.004H11.81a2.87 2.87 0 0 1-2.867-2.865 2.87 2.87 0 0 1 2.867-2.865h10.226V12.248a2.869 2.869 0 0 1 2.867-2.864 2.87 2.87 0 0 1 2.867 2.864v10.026h10.034a2.87 2.87 0 0 1 2.867 2.865 2.87 2.87 0 0 1-2.867 2.865z"/>
</svg>
