<svg xmlns="http://www.w3.org/2000/svg" width="30" height="30">
    <path fill="#FF4E00" fill-rule="evenodd" d="M15 29.999c-8.284 0-15-6.717-15-15.004C0 6.708 6.716-.009 15-.009c8.284 0 15 6.717 15 15.004 0 8.287-6.716 15.004-15 15.004zm6.412-19.724c.634-.634.634-1.661 0-2.294-.633-.634-1.66-.634-2.293 0l-3.924 3.925-3.432-3.425c-.635-.634-1.664-.634-2.299 0-.635.633-.635 1.66 0 2.294l3.435 3.427-3.528 3.529c-.634.634-.634 1.661 0 2.294.633.634 1.66.634 2.293 0l3.531-3.532 4.041 4.032c.634.634 1.664.634 2.298 0 .635-.633.635-1.66 0-2.294l-4.043-4.034 3.921-3.922z"/>
</svg>
