<svg xmlns="http://www.w3.org/2000/svg" width="88.032" height="76.032">
    <path fill-rule="evenodd" fill="#8486FD" d="M66.001 43.817s-1.477 3.022-8.686 4.469c-.122-7.112-.717-11.953-3.304-15.556-1.496-2.084-3.528-3.509-5.761-4.532.139.007.28.011.425.011 3.515 0 5.023-1.953 5.023-1.953 10.714 1.965 12.114 5.068 12.284 15.96.011.701.017.817.02.752l-.001.849zM48.675 25.388c-1.508 0-2.93-.452-4.185-1.248 1.825-2.938 2.817-6.486 2.817-10.202 0-3.282-.248-7.393-2.055-10.779.974-.268 2.107-.412 3.423-.412 7.825 0 9.174 5.069 9.174 11.321s-4.107 11.32-9.174 11.32zM33 27.877c-6.238 0-11.295-6.241-11.295-13.938C21.705 6.24 23.365 0 33 0c9.634 0 11.295 6.24 11.295 13.939 0 7.697-5.057 13.938-11.295 13.938zm-15.675-2.489c-5.067 0-9.174-5.068-9.174-11.32 0-6.252 1.348-11.321 9.174-11.321 1.316 0 2.449.144 3.422.412-1.807 3.386-2.054 7.497-2.054 10.78 0 3.716.991 7.263 2.817 10.201-1.255.796-2.677 1.248-4.185 1.248zm0 2.821c.145 0 .286-.005.425-.011-2.234 1.023-4.266 2.448-5.761 4.531-2.588 3.604-3.182 8.445-3.305 15.557-7.208-1.447-8.685-4.469-8.685-4.469l-.001-.849c.003.065.008-.051.02-.753.169-10.891 1.57-13.994 12.283-15.959 0 0 1.508 1.953 5.024 1.953zM11.698 48.16c.241-13.057 2.07-16.822 15.117-19.214 0 0 1.857 2.404 6.185 2.404 4.328 0 6.186-2.404 6.186-2.404 13.191 2.419 14.915 6.239 15.123 19.65.014.857.021 1.006.025.929v1.042S51.192 57 33 57s-21.332-6.433-21.332-6.433c0-.748-.002-1.176-.002-1.409.004.124.013.068.032-.998z"/>
</svg>
