<svg xmlns="http://www.w3.org/2000/svg" width="76.032" height="76.032">
    <path fill-rule="evenodd" fill="#FFF" d="M53.091 25.048c-.379-1.268-.899-2.496-1.708-3.592-1.172-1.589-2.736-2.804-4.488-3.622 1.08-1.187 1.755-2.747 1.755-4.475a6.685 6.685 0 0 0-6.679-6.679 6.686 6.686 0 0 0-6.68 6.679c0 1.714.666 3.262 1.73 4.445a11.686 11.686 0 0 0-4.137 3.232c-.966 1.191-1.618 2.559-2.049 3.994-.374-.417-.684-.887-1.013-1.342l-7.238 3.898c.493 1.292.795 2.68.795 4.142 0 1.464-.308 2.848-.803 4.138l12.867 7.372c1.533-1.783 3.776-2.937 6.305-2.937 4.604 0 8.35 3.746 8.35 8.349 0 4.604-3.746 8.35-8.35 8.35-4.604 0-8.35-3.746-8.35-8.35 0-.874.173-1.701.423-2.494l-12.879-7.378c-.345.45-.691.902-1.096 1.299a8.177 8.177 0 0 0-.836-2.349 8.335 8.335 0 0 0-3.164-3.207 4.98 4.98 0 0 0 .853-2.793 5.015 5.015 0 0 0-5.01-5.009 5.015 5.015 0 0 0-5.009 5.009c0 1.039.318 2.004.861 2.805-1.411.81-2.595 2.003-3.35 3.538-.319.648-.501 1.332-.639 2.021C1.368 37.967 0 35.009 0 31.728c0-6.444 5.245-11.689 11.689-11.689 3.785 0 7.122 1.838 9.259 4.636l7.205-3.879c-.761-1.776-1.212-3.712-1.212-5.767C26.941 6.742 33.683 0 41.971 0 50.258 0 57 6.742 57 15.029c0 3.863-1.505 7.354-3.909 10.019zm-43.071 6.68a1.67 1.67 0 1 1 3.34.002 1.67 1.67 0 0 1-3.34-.002zm1.669 5.01c1.829 0 3.512.997 4.394 2.6.497.904.672 1.909.568 2.934-1.512.715-3.182 1.146-4.962 1.146-1.773 0-3.438-.428-4.946-1.138-.098-.946.025-1.878.447-2.737a4.981 4.981 0 0 1 4.499-2.805zm26.942-23.379a3.345 3.345 0 0 1 3.34-3.34 3.345 3.345 0 0 1 3.34 3.34 3.345 3.345 0 0 1-3.34 3.34 3.345 3.345 0 0 1-3.34-3.34zm10.065 10.08c.899 1.219 1.389 2.641 1.534 4.124a14.925 14.925 0 0 1-8.259 2.496c-3.05 0-5.882-.926-8.254-2.493.161-1.612.73-3.155 1.763-4.428a8.316 8.316 0 0 1 6.491-3.099 8.387 8.387 0 0 1 6.725 3.4z"/>
</svg>
