<svg xmlns="http://www.w3.org/2000/svg" width="30" height="30">
    <path fill="#FEAB16" fill-rule="evenodd" d="M15 29.999c-8.284 0-15-6.717-15-15.004C0 6.708 6.716-.009 15-.009c8.284 0 15 6.717 15 15.004 0 8.287-6.716 15.004-15 15.004zM8.5 13C7.119 13 6 14.119 6 15.5S7.119 18 8.5 18s2.5-1.119 2.5-2.5S9.881 13 8.5 13zm7 0c-1.381 0-2.5 1.119-2.5 2.5s1.119 2.5 2.5 2.5 2.5-1.119 2.5-2.5-1.119-2.5-2.5-2.5zm7 0c-1.381 0-2.5 1.119-2.5 2.5s1.119 2.5 2.5 2.5 2.5-1.119 2.5-2.5-1.119-2.5-2.5-2.5z"/>
</svg>
