<svg xmlns="http://www.w3.org/2000/svg" width="67.968" height="69.312">
    <path fill-rule="evenodd" fill="#FFF" d="m50.125 23.286-2.41 2.376-6.705-6.695c2.584-2.579 2.452-2.457 2.621-2.595a2.997 2.997 0 0 1 4 .205l2.494 2.49a2.983 2.983 0 0 1 0 4.219zM33.754 39.305l-8.453 3.938a1.495 1.495 0 0 1-1.688-.297 1.489 1.489 0 0 1-.298-1.685l3.945-8.439c.159-.34-.77.642 11.637-11.745l6.692 6.681C33.075 40.096 34.088 39.149 33.754 39.305zm-9.202-7.745-3.944 8.439a4.482 4.482 0 0 0 .892 5.057 4.483 4.483 0 0 0 5.065.891l8.452-3.938c.466-.217.888-.51 1.254-.871l1.88-1.854v7.645a4.484 4.484 0 0 1-4.483 4.475H4.483A4.484 4.484 0 0 1 0 46.929V4.963A4.485 4.485 0 0 1 4.483.487h29.185a4.485 4.485 0 0 1 4.483 4.476v12.64L25.444 30.289c-.371.37-.67.797-.892 1.271zM7.969 29.029h12.75a1.492 1.492 0 1 0 0-2.984H7.969a1.493 1.493 0 1 0 0 2.984zm23.807-17.404c0-.823-.669-1.491-1.494-1.491H7.969c-.825 0-1.494.668-1.494 1.491 0 .824.669 1.492 1.494 1.492h22.313c.825 0 1.494-.668 1.494-1.492zm-4.781 7.956c0-.824-.669-1.491-1.495-1.491H7.969a1.492 1.492 0 1 0 0 2.983H25.5c.826 0 1.495-.668 1.495-1.492z"/>
</svg>
