<svg xmlns="http://www.w3.org/2000/svg" width="82.656" height="84">
    <path fill-rule="evenodd" fill="#FD9B6E" d="M60.174 62.993H40.803c-1.003 0-1.816-.826-1.816-1.845v-2.461a9.268 9.268 0 0 1 3.984-7.634c1.88 2.045 4.554 3.327 7.518 3.327 2.964 0 5.638-1.282 7.517-3.327a9.266 9.266 0 0 1 3.984 7.634v2.461c0 1.019-.813 1.845-1.816 1.845zm-9.685-12.305c-3.307 0-6.057-2.463-6.571-5.679l-8.556-2.7c-.995 1.351-2.581 2.227-4.365 2.227-1.784 0-3.37-.876-4.365-2.227l-8.556 2.7c-.514 3.216-3.264 5.679-6.571 5.679-3.671 0-6.658-3.036-6.658-6.767 0-3.732 2.987-6.768 6.658-6.768 2.751 0 5.118 1.704 6.132 4.13l7.917-2.499c.088-2.313 1.576-4.266 3.627-5.006v-7.946h-7.869c-1.004 0-1.816-.826-1.816-1.846v-2.461a9.264 9.264 0 0 1 3.984-7.633c1.879 2.045 4.553 3.326 7.517 3.326 2.964 0 5.638-1.281 7.518-3.326a9.266 9.266 0 0 1 3.983 7.633v2.461c0 1.02-.812 1.846-1.816 1.846h-7.869v7.946c2.051.74 3.539 2.693 3.627 5.006l7.917 2.499c1.014-2.426 3.381-4.13 6.132-4.13 3.671 0 6.658 3.036 6.658 6.768 0 3.731-2.987 6.767-6.658 6.767zM30.997 13.527c-3.677 0-6.659-3.03-6.659-6.768S27.32-.009 30.997-.009c3.677 0 6.659 3.03 6.659 6.768s-2.982 6.768-6.659 6.768zM19.023 51.053a9.268 9.268 0 0 1 3.984 7.634v2.461c0 1.019-.813 1.845-1.816 1.845H1.82c-1.003 0-1.816-.826-1.816-1.845v-2.461a9.266 9.266 0 0 1 3.984-7.634c1.879 2.045 4.553 3.327 7.517 3.327 2.964 0 5.638-1.282 7.518-3.327z"/>
</svg>
