<svg xmlns="http://www.w3.org/2000/svg" width="85.344" height="85.344">
    <path fill-rule="evenodd" fill="#36C4FF" d="M56.1 39.9H34.633L27.1 45.55c-1.241.93-3 .033-3-1.5V7.9C24.1 3.53 27.637 0 32 0h24.1C60.47 0 64 3.537 64 7.9V32c0 4.37-3.537 7.9-7.9 7.9zM34.008 29.858h8.167a1.875 1.875 0 0 0 0-3.75h-8.167a1.876 1.876 0 0 0 0 3.75zm20.084-19.817H34.008a1.876 1.876 0 0 0 0 3.75h20.084a1.875 1.875 0 0 0 0-3.75zm0 8.034H34.008a1.875 1.875 0 0 0 0 3.75h20.084a1.876 1.876 0 0 0 0-3.75zM21.958 64H1.875A1.874 1.874 0 0 1 0 62.125v-2.358c0-6.581 5.335-11.916 11.916-11.916 6.582 0 11.917 5.335 11.917 11.916v2.358A1.874 1.874 0 0 1 21.958 64zM3.053 38.987a8.864 8.864 0 1 1 8.863 8.864 8.864 8.864 0 0 1-8.863-8.864z"/>
</svg>
