<svg xmlns="http://www.w3.org/2000/svg" width="60" height="66.624">
    <path fill-rule="evenodd" fill="#FEFEFE" d="m42.607 6.637-3.769-3.762A8.162 8.162 0 0 0 33.064.486H5.615A5.61 5.61 0 0 0 0 6.091V43.8a5.61 5.61 0 0 0 5.615 5.606h33.77A5.61 5.61 0 0 0 45 43.8V12.402a8.14 8.14 0 0 0-2.393-5.765zm-34.44 6.588V8.13a1.53 1.53 0 0 1 1.531-1.529h19.437a1.53 1.53 0 0 1 1.531 1.529v5.095a1.53 1.53 0 0 1-1.531 1.529H9.698a1.53 1.53 0 0 1-1.531-1.529zM22.5 41.253c-5.074 0-9.188-4.108-9.188-9.173s4.114-9.172 9.188-9.172c5.073 0 9.187 4.107 9.187 9.172s-4.114 9.173-9.187 9.173z"/>
</svg>
